#!OML:ASF E:\Steps\Project 1\Capture day 1\Session 2\Subject.ASF
:FULLY-SPECIFIED
:DEGREES
283
root 9.33645 16.3389 17.9377 -151.94 -3.21208 179.612
lowerback -28.1072 -1.64144 -5.63765
upperback -2.64449 -1.1133 -0.465683
thorax 12.7324 -1.1254 2.22391
lowerneck 5.60509 -7.71324 -4.19709
upperneck -13.4579 -10.3413 8.27533
head -4.26812 -5.59852 3.73284
rclavicle 5.76476e-015 3.1408e-014
rhumerus -34.0058 -19.6232 -79.3165
rradius 25.5189
rwrist 4.38203
rhand -8.46168 -48.5618
rfingers 7.12502
rthumb 17.4646 -77.7973
lclavicle 5.76476e-015 3.1408e-014
lhumerus -30.4658 -13.1204 86.971
lradius 23.757
lwrist -6.16628
lhand -21.747 -14.4364
lfingers 7.12502
lthumb 4.65311 15.4925
rfemur -28.711 9.81237 16.6593
rtibia 11.2192
rfoot -19.2874 -6.95065
rtoes -33.5492
lfemur -27.5547 -8.2875 -17.8437
ltibia 9.93254
lfoot -9.17325 4.3842
ltoes -45.5477
284
root 9.34174 16.3415 17.9453 -151.764 -3.17524 179.568
lowerback -27.9499 -1.62437 -5.75595
upperback -2.65847 -1.06185 -0.47508
thorax 12.6299 -1.10466 2.30413
lowerneck 5.45653 -7.84842 -4.06518
upperneck -13.5049 -10.513 8.33629
head -4.25036 -5.69688 3.73069
rclavicle -1.04362e-014 5.96354e-015
rhumerus -34.2848 -18.9896 -79.3681
rradius 25.8445
rwrist 3.83078
rhand -8.54137 -48.0442
rfingers 7.12502
rthumb 17.3879 -77.2865
lclavicle -1.04362e-014 5.96354e-015
lhumerus -30.9867 -14.4024 87.2133
lradius 24.476
lwrist -5.42166
lhand -22.0091 -14.3679
lfingers 7.12502
lthumb 4.39996 15.5664
rfemur -28.9673 9.70931 16.6064
rtibia 11.2717
rfoot -19.3448 -6.84737
rtoes -33.4999
lfemur -27.8193 -8.32028 -17.8307
ltibia 10.0017
lfoot -9.10143 4.39536
ltoes -45.6017
285
root 9.34805 16.3412 17.9553 -151.496 -3.03609 179.62
lowerback -28.3352 -1.60866 -5.78837
upperback -2.42845 -0.97275 -0.444684
thorax 13.0991 -1.0705 2.38435
lowerneck 4.92835 -8.12219 -3.71315
upperneck -14.0448 -10.903 8.3441
head -4.32229 -5.93464 3.68836
rclavicle -8.94531e-015 -1.70955e-014
rhumerus -34.0843 -18.5211 -79.5266
rradius 26.1118
rwrist 3.52302
rhand -8.56088 -48.5517
rfingers 7.12502
rthumb 17.3691 -77.7956
lclavicle -8.94531e-015 -1.70955e-014
lhumerus -31.0674 -15.5628 87.377
lradius 25.1093
lwrist -4.63793
lhand -22.316 -14.5454
lfingers 7.12502
lthumb 4.1036 15.3949
rfemur -29.3919 9.65303 16.6177
rtibia 11.3758
rfoot -19.3631 -6.65764
rtoes -33.3093
lfemur -28.2127 -8.22002 -17.7237
ltibia 10.1207
lfoot -9.03842 4.46353
ltoes -45.4676
286
root 9.35294 16.3424 17.9642 -151.276 -2.97498 179.684
lowerback -28.0804 -1.5733 -5.75621
upperback -2.60307 -0.985603 -0.414569
thorax 12.7587 -1.07336 2.40077
lowerneck 5.50244 -7.8683 -3.95322
upperneck -13.9825 -10.5585 8.28211
head -4.4106 -5.7391 3.72288
rclavicle 6.36111e-015 -6.75868e-015
rhumerus -34.5883 -17.8958 -79.5188
rradius 26.3819
rwrist 3.36217
rhand -8.76807 -48.8029
rfingers 7.12502
rthumb 17.1697 -78.0643
lclavicle 6.36111e-015 -6.75868e-015
lhumerus -31.9633 -16.8584 87.7118
lradius 25.8886
lwrist -3.69973
lhand -22.2948 -14.6175
lfingers 7.12502
lthumb 4.12409 15.3223
rfemur -29.7577 9.70772 16.6228
rtibia 11.5072
rfoot -19.2996 -6.6445
rtoes -33.2761
lfemur -28.5744 -8.24527 -17.5579
ltibia 10.2695
lfoot -9.10951 4.73595
ltoes -45.6321
287
root 9.35798 16.3486 17.9719 -151.207 -3.03953 179.631
lowerback -27.6977 -1.607 -5.76425
upperback -2.65731 -1.05113 -0.416778
thorax 12.4987 -1.09497 2.38494
lowerneck 5.7637 -7.72165 -4.24612
upperneck -13.826 -10.3617 8.34098
head -4.3991 -5.6228 3.7851
rclavicle 1.0635e-014 3.18055e-014
rhumerus -34.9877 -17.2011 -79.5648
rradius 26.6452
rwrist 3.03559
rhand -9.09017 -47.7225
rfingers 7.12502
rthumb 16.8596 -77.0106
lclavicle 1.0635e-014 3.18055e-014
lhumerus -32.621 -17.8737 87.8318
lradius 26.58
lwrist -3.32796
lhand -21.9291 -14.6366
lfingers 7.12502
lthumb 4.47723 15.296
rfemur -29.8849 9.73387 16.5463
rtibia 11.5808
rfoot -19.2594 -6.78972
rtoes -33.2224
lfemur -28.7699 -8.37796 -17.5215
ltibia 10.4107
lfoot -9.18642 4.85201
ltoes -45.8969
288
root 9.36272 16.3484 17.9765 -151.016 -2.94248 179.652
lowerback -27.616 -1.61168 -5.74808
upperback -2.58695 -1.05694 -0.351285
thorax 12.5402 -1.09411 2.45008
lowerneck 5.69957 -7.63507 -4.48598
upperneck -13.9308 -10.2733 8.33275
head -4.41356 -5.57119 3.81794
rclavicle 5.66536e-015 -1.82882e-014
rhumerus -35.1584 -16.3627 -79.5748
rradius 27.0274
rwrist 2.38372
rhand -9.17577 -46.5363
rfingers 7.12502
rthumb 16.7772 -75.8314
lclavicle 5.66536e-015 -1.82882e-014
lhumerus -32.9799 -18.5876 87.8856
lradius 27.2564
lwrist -3.46284
lhand -21.5074 -14.4503
lfingers 7.12502
lthumb 4.88438 15.4734
rfemur -30.2088 9.815 16.5073
rtibia 11.7201
rfoot -19.3429 -6.81802
rtoes -32.6585
lfemur -29.0424 -8.5259 -17.3911
ltibia 10.4848
lfoot -9.19095 4.97423
ltoes -45.3783
289
root 9.36865 16.3497 17.9816 -150.877 -2.87775 179.645
lowerback -27.5189 -1.59165 -5.8017
upperback -2.47582 -0.996469 -0.330603
thorax 12.6156 -1.06431 2.5291
lowerneck 5.67285 -7.68001 -4.44219
upperneck -14.3015 -10.3488 8.35661
head -4.51856 -5.62672 3.8364
rclavicle -6.26172e-015 1.55052e-014
rhumerus -35.4361 -15.6566 -79.6132
rradius 27.6105
rwrist 1.76136
rhand -9.18316 -45.9459
rfingers 7.12502
rthumb 16.7701 -75.2416
lclavicle -6.26172e-015 1.55052e-014
lhumerus -33.4401 -19.7962 88.0905
lradius 28.0658
lwrist -3.02027
lhand -21.4054 -14.1339
lfingers 7.12502
lthumb 4.98292 15.7875
rfemur -30.4449 9.892 16.46
rtibia 11.8211
rfoot -19.4574 -6.85762
rtoes -32.1638
lfemur -29.282 -8.74395 -17.2818
ltibia 10.6221
lfoot -9.29347 5.12377
ltoes -44.312
290
root 9.37589 16.3507 17.989 -150.703 -2.80494 179.66
lowerback -27.4 -1.54382 -5.82563
upperback -2.47299 -0.926222 -0.369867
thorax 12.549 -1.02943 2.52617
lowerneck 5.81802 -7.77504 -4.32533
upperneck -14.5384 -10.4598 8.51236
head -4.60524 -5.70658 3.8875
rclavicle 4.96962e-016 -2.10712e-014
rhumerus -35.9228 -15.2086 -79.6417
rradius 28.1115
rwrist 1.57277
rhand -9.0765 -45.9947
rfingers 7.12502
rthumb 16.8728 -75.2817
lclavicle 4.96962e-016 -2.10712e-014
lhumerus -34.2238 -21.0505 88.2507
lradius 28.9478
lwrist -2.48524
lhand -21.4488 -14.2566
lfingers 7.12502
lthumb 4.94104 15.6657
rfemur -30.7797 10.0328 16.4134
rtibia 12.0082
rfoot -19.5023 -6.95269
rtoes -32.5576
lfemur -29.6155 -8.81162 -17.1642
ltibia 10.8363
lfoot -9.48619 5.19441
ltoes -43.2861
291
root 9.38437 16.3521 17.9991 -150.447 -2.80433 179.71
lowerback -27.2946 -1.55393 -5.78251
upperback -2.52658 -0.968013 -0.364124
thorax 12.4335 -1.04495 2.49408
lowerneck 5.91165 -7.79723 -4.43809
upperneck -14.6071 -10.4881 8.64668
head -4.62566 -5.72669 3.95415
rclavicle -6.26172e-015 6.75868e-015
rhumerus -36.3284 -14.4332 -79.7533
rradius 28.5257
rwrist 1.20472
rhand -8.93279 -46.9936
rfingers 7.12502
rthumb 17.0111 -76.2687
lclavicle -6.26172e-015 6.75868e-015
lhumerus -34.9729 -21.8052 88.2694
lradius 29.7395
lwrist -2.20782
lhand -21.401 -14.4887
lfingers 7.12502
lthumb 4.98712 15.4326
rfemur -31.2659 10.2414 16.3706
rtibia 12.2905
rfoot -19.4872 -7.15322
rtoes -32.9754
lfemur -30.1133 -8.82908 -16.9649
ltibia 11.1113
lfoot -9.57751 5.26761
ltoes -43.3092
292
root 9.39202 16.3559 18.0083 -150.296 -2.89244 179.653
lowerback -27.0402 -1.5932 -5.84077
upperback -2.50068 -1.00544 -0.361562
thorax 12.3332 -1.05778 2.52081
lowerneck 5.8266 -7.83552 -4.50751
upperneck -14.7473 -10.5528 8.68965
head -4.64351 -5.76482 3.98201
rclavicle 3.8763e-015 -7.55382e-015
rhumerus -36.7096 -13.4562 -79.935
rradius 29.0975
rwrist 0.656891
rhand -9.00826 -47.4866
rfingers 7.12502
rthumb 16.9385 -76.768
lclavicle 3.8763e-015 -7.55382e-015
lhumerus -35.4828 -22.5042 88.2977
lradius 30.4452
lwrist -1.88075
lhand -21.5895 -14.4921
lfingers 7.12502
lthumb 4.80519 15.4334
rfemur -31.6121 10.3433 16.2695
rtibia 12.5947
rfoot -19.5792 -7.36939
rtoes -33.1472
lfemur -30.4747 -8.97599 -16.9084
ltibia 11.3831
lfoot -9.65111 5.56053
ltoes -45.0743
293
root 9.39864 16.3602 18.0192 -150.2 -2.91771 179.544
lowerback -26.5782 -1.5967 -5.99023
upperback -2.52534 -0.985493 -0.385216
thorax 12.0584 -1.04423 2.59494
lowerneck 5.80468 -7.81477 -4.54132
upperneck -14.7138 -10.5248 8.68334
head -4.62989 -5.74734 3.98158
rclavicle 7.55382e-015 -1.15295e-014
rhumerus -37.3361 -12.8841 -79.937
rradius 29.612
rwrist 0.78395
rhand -9.18691 -46.8561
rfingers 7.12502
rthumb 16.7665 -76.1522
lclavicle 7.55382e-015 -1.15295e-014
lhumerus -36.1577 -23.3217 88.4136
lradius 31.1401
lwrist -1.70243
lhand -22.0337 -14.5548
lfingers 7.12502
lthumb 4.37625 15.38
rfemur -31.9529 10.3939 16.1301
rtibia 12.9959
rfoot -19.7533 -7.53794
rtoes -33.5253
lfemur -30.7942 -9.2291 -16.9232
ltibia 11.7532
lfoot -9.81736 5.9195
ltoes -46.5754
294
root 9.40643 16.3651 18.0325 -150.054 -2.97505 179.444
lowerback -26.3562 -1.6262 -6.0783
upperback -2.41952 -0.980848 -0.434271
thorax 12.0639 -1.0376 2.59444
lowerneck 5.91951 -7.82291 -4.53594
upperneck -14.96 -10.5338 8.79009
head -4.7179 -5.76886 4.03113
rclavicle 8.94531e-015 -5.1684e-015
rhumerus -37.6246 -12.6481 -79.9605
rradius 30.1629
rwrist 0.710542
rhand -9.23467 -47.7281
rfingers 7.12502
rthumb 16.7205 -77.028
lclavicle 8.94531e-015 -5.1684e-015
lhumerus -36.6409 -24.2767 88.4456
lradius 31.7879
lwrist -1.44846
lhand -22.4087 -14.4627
lfingers 7.12502
lthumb 4.01412 15.4792
rfemur -32.3338 10.5147 15.9554
rtibia 13.3345
rfoot -19.8673 -7.83126
rtoes -33.6126
lfemur -31.3161 -9.44901 -16.8942
ltibia 12.3682
lfoot -9.97413 5.96088
ltoes -46.4562
295
root 9.41454 16.3674 18.0471 -149.805 -3.06156 179.353
lowerback -26.0614 -1.67361 -6.14802
upperback -2.40376 -1.03146 -0.435185
thorax 11.9307 -1.05638 2.62011
lowerneck 5.98313 -7.87912 -4.53847
upperneck -15.2876 -10.6139 8.92213
head -4.8155 -5.83116 4.09347
rclavicle 9.93923e-015 -4.37326e-015
rhumerus -37.8765 -12.2764 -79.9543
rradius 30.6215
rwrist 0.44589
rhand -9.57955 -48.1732
rfingers 7.12502
rthumb 16.3885 -77.5009
lclavicle 9.93923e-015 -4.37326e-015
lhumerus -37.21 -25.103 88.5482
lradius 32.4503
lwrist -1.20198
lhand -22.5924 -14.2632
lfingers 7.12502
lthumb 3.83676 15.682
rfemur -32.8927 10.6128 15.7639
rtibia 13.7981
rfoot -20.1478 -8.08486
rtoes -33.1539
lfemur -31.9783 -9.67214 -16.8176
ltibia 12.9778
lfoot -10.1243 6.00404
ltoes -45.871
296
root 9.42257 16.3638 18.0652 -149.361 -3.02345 179.316
lowerback -25.7811 -1.60304 -6.16628
upperback -2.56938 -0.971225 -0.516358
thorax 11.5814 -1.02371 2.56528
lowerneck 5.89416 -7.90445 -4.51002
upperneck -15.1814 -10.6337 8.97793
head -4.76456 -5.84328 4.09664
rclavicle 5.06901e-015 -8.74653e-015
rhumerus -38.4642 -11.9475 -79.9742
rradius 31.1163
rwrist 0.101568
rhand -9.72163 -48.1362
rfingers 7.12502
rthumb 16.2517 -77.4751
lclavicle 5.06901e-015 -8.74653e-015
lhumerus -38.142 -26.049 88.6354
lradius 33.2849
lwrist -0.938488
lhand -22.7981 -14.1913
lfingers 7.12502
lthumb 3.63807 15.7574
rfemur -33.8361 10.6174 15.5994
rtibia 14.5077
rfoot -20.4537 -8.12811
rtoes -32.8148
lfemur -32.887 -9.89954 -16.6323
ltibia 13.6251
lfoot -10.3678 6.26526
ltoes -45.8882
297
root 9.43299 16.3552 18.0901 -148.711 -2.85021 179.376
lowerback -25.8546 -1.55276 -6.19405
upperback -2.69765 -0.923258 -0.495287
thorax 11.4675 -1.00808 2.62146
lowerneck 5.88927 -7.94746 -4.58448
upperneck -15.4496 -10.719 8.96136
head -4.83721 -5.89152 4.11883
rclavicle -6.4605e-015 3.18055e-015
rhumerus -38.7854 -11.5648 -79.8689
rradius 31.4548
rwrist -0.052019
rhand -9.83184 -47.817
rfingers 7.12502
rthumb 16.1456 -77.1645
lclavicle -6.4605e-015 3.18055e-015
lhumerus -38.8231 -26.6195 88.6493
lradius 34.0243
lwrist -0.604365
lhand -22.942 -14.3439
lfingers 7.12502
lthumb 3.49914 15.6071
rfemur -35.1665 10.5805 15.5136
rtibia 15.3803
rfoot -20.5957 -8.09117
rtoes -33.0973
lfemur -34.2148 -9.92636 -16.3387
ltibia 14.6261
lfoot -10.7409 6.53626
ltoes -46.0699
